<svg xmlns="http://www.w3.org/2000/svg" viewBox="0 0 640 232" width="640" height="232" role="img" aria-label="Illustration for Toileting support">
  <style>
    .bob { animation: bob 4.5s ease-in-out infinite; transform-box: fill-box; transform-origin: 50% 100%; }
    .blink { animation: blink 6s step-end infinite; transform-box: fill-box; transform-origin: 50% 50%; }
    .pulse { animation: pulse 2.4s ease-in-out infinite; transform-box: fill-box; transform-origin: 50% 50%; }
    .rise { animation: rise .5s ease-out both; }
    @keyframes bob { 0%,100% { transform: translateY(0) } 50% { transform: translateY(-4px) } }
    @keyframes blink { 0%,92%,100% { transform: scaleY(1) } 95% { transform: scaleY(.1) } }
    @keyframes pulse { 0%,100% { transform: scale(1); opacity:.9 } 50% { transform: scale(1.09); opacity:1 } }
    @keyframes rise { from { opacity:0; transform: translateY(6px) } to { opacity:1; transform: translateY(0) } }
    @media (prefers-reduced-motion: reduce) {
      .bob, .blink, .pulse, .rise { animation: none }
    }
  </style>
  <rect width="640" height="232" rx="18" fill="#f6f1fe"/>
  <text x="32" y="42" font-family="Inter, Arial, sans-serif" font-size="18" font-weight="700" fill="#7c3aed">Person-centred toileting</text>
  <g transform="translate(96 154)">
  <g class="bob" style="animation-delay:0.0s">
    <path d="M-30 46 a30 34 0 0 1 60 0 z" fill="#7c3aed"/>
    <path d="M-9 14 h18 v14 h-18 z" fill="#8d5524"/>
    <circle cx="0" cy="-8" r="20" fill="#8d5524"/>
    <path d="M-20 -26 a20 22 0 0 1 40 0 q0 14 -8 18 h-24 q-8 -4 -8 -18z" fill="#4a3728"/>
    <g class="blink">
      <circle cx="-7" cy="-10" r="2.2" fill="#1f2937"/>
      <circle cx="7" cy="-10" r="2.2" fill="#1f2937"/>
    </g>
    <path d="M-7 0 q7 6 14 0" stroke="#1f2937" stroke-width="2" fill="none" stroke-linecap="round"/>
    <circle cx="-11" cy="-2" r="3.5" fill="#f87171" opacity=".28"/>
    <circle cx="11" cy="-2" r="3.5" fill="#f87171" opacity=".28"/>
    <g transform="translate(36 -12)"><g class="pulse"><path d="M14 30 L3 19 a7 7 0 0 1 11-9 a7 7 0 0 1 11 9 z" fill="#7c3aed" opacity=".85"/></g></g>
  </g></g>
  
    <g transform="translate(250 76)">
      <g class="rise" style="animation-delay:0.15s">
        <rect width="330" height="34" rx="17" fill="#ffffff" stroke="#c4a6f7" stroke-width="2"/>
        <circle cx="22" cy="17" r="7" fill="#7c3aed"/>
        <path d="M18.5 17 l2.5 2.5 l4.5 -5" stroke="#fff" stroke-width="2" fill="none" stroke-linecap="round" stroke-linejoin="round"/>
        <text x="42" y="22" font-family="Inter, Arial, sans-serif" font-size="12.5" font-weight="600" fill="#334155">Routine</text>
      </g>
    </g>
    <g transform="translate(250 120)">
      <g class="rise" style="animation-delay:0.27s">
        <rect width="330" height="34" rx="17" fill="#ffffff" stroke="#c4a6f7" stroke-width="2"/>
        <circle cx="22" cy="17" r="7" fill="#7c3aed"/>
        <path d="M18.5 17 l2.5 2.5 l4.5 -5" stroke="#fff" stroke-width="2" fill="none" stroke-linecap="round" stroke-linejoin="round"/>
        <text x="42" y="22" font-family="Inter, Arial, sans-serif" font-size="12.5" font-weight="600" fill="#334155">Respond promptly</text>
      </g>
    </g>
    <g transform="translate(250 164)">
      <g class="rise" style="animation-delay:0.39s">
        <rect width="330" height="34" rx="17" fill="#ffffff" stroke="#c4a6f7" stroke-width="2"/>
        <circle cx="22" cy="17" r="7" fill="#7c3aed"/>
        <path d="M18.5 17 l2.5 2.5 l4.5 -5" stroke="#fff" stroke-width="2" fill="none" stroke-linecap="round" stroke-linejoin="round"/>
        <text x="42" y="22" font-family="Inter, Arial, sans-serif" font-size="12.5" font-weight="600" fill="#334155">Privacy</text>
      </g>
    </g>
</svg>
