<svg xmlns="http://www.w3.org/2000/svg" viewBox="0 0 600 380" width="600" height="380" role="img" aria-label="Animated communication cycle: sender, message, receiver, feedback">
  <defs>
    <marker id="cc-arrow" viewBox="0 0 10 10" refX="8" refY="5" markerWidth="7" markerHeight="7" orient="auto-start-reverse">
      <path d="M0 0 L10 5 L0 10 z" fill="#0d9488"/>
    </marker>
    <path id="cc-ring" d="M300 70 A130 110 0 0 1 300 290 A130 110 0 0 1 300 70" fill="none"/>
  </defs>

  <rect width="600" height="380" rx="16" fill="#f0fdfa"/>
  <text x="300" y="34" text-anchor="middle" font-family="Inter, Arial, sans-serif" font-size="19" font-weight="700" fill="#0f766e">The communication cycle</text>

  <!-- ring guide -->
  <ellipse cx="300" cy="190" rx="150" ry="118" fill="none" stroke="#99f6e4" stroke-width="3" stroke-dasharray="4 8"/>

  <!-- directional arrows around the loop -->
  <path d="M430 140 A150 118 0 0 1 430 240" fill="none" stroke="#0d9488" stroke-width="3" marker-end="url(#cc-arrow)"/>
  <path d="M170 240 A150 118 0 0 1 170 140" fill="none" stroke="#0d9488" stroke-width="3" marker-end="url(#cc-arrow)"/>

  <!-- travelling message dot -->
  <circle r="9" fill="#f59e0b">
    <animateMotion dur="6s" repeatCount="indefinite" rotate="auto">
      <mpath href="#cc-ring"/>
    </animateMotion>
    <animate attributeName="r" values="9;13;9" dur="1.2s" repeatCount="indefinite"/>
  </circle>

  <!-- nodes -->
  <g font-family="Inter, Arial, sans-serif" text-anchor="middle">
    <!-- Sender (top) -->
    <g>
      <circle cx="300" cy="72" r="40" fill="#0d9488">
        <animate attributeName="fill" values="#0d9488;#14b8a6;#0d9488" dur="6s" begin="0s" repeatCount="indefinite"/>
      </circle>
      <text x="300" y="68" fill="#fff" font-size="13" font-weight="700">Sender</text>
      <text x="300" y="85" fill="#ccfbf1" font-size="9">forms the message</text>
    </g>
    <!-- Message (right) -->
    <g>
      <circle cx="450" cy="190" r="40" fill="#0d9488">
        <animate attributeName="fill" values="#0d9488;#14b8a6;#0d9488" dur="6s" begin="1.5s" repeatCount="indefinite"/>
      </circle>
      <text x="450" y="186" fill="#fff" font-size="13" font-weight="700">Message</text>
      <text x="450" y="203" fill="#ccfbf1" font-size="9">words + body</text>
    </g>
    <!-- Receiver (bottom) -->
    <g>
      <circle cx="300" cy="308" r="40" fill="#0d9488">
        <animate attributeName="fill" values="#0d9488;#14b8a6;#0d9488" dur="6s" begin="3s" repeatCount="indefinite"/>
      </circle>
      <text x="300" y="304" fill="#fff" font-size="13" font-weight="700">Receiver</text>
      <text x="300" y="321" fill="#ccfbf1" font-size="9">interprets it</text>
    </g>
    <!-- Feedback (left) -->
    <g>
      <circle cx="150" cy="190" r="40" fill="#0d9488">
        <animate attributeName="fill" values="#0d9488;#14b8a6;#0d9488" dur="6s" begin="4.5s" repeatCount="indefinite"/>
      </circle>
      <text x="150" y="186" fill="#fff" font-size="13" font-weight="700">Feedback</text>
      <text x="150" y="203" fill="#ccfbf1" font-size="9">confirms it</text>
    </g>
  </g>
</svg>
