<svg xmlns="http://www.w3.org/2000/svg" viewBox="0 0 620 440" width="620" height="440" role="img" aria-label="Animated communication cycle: sender, message, receiver, feedback">
  <defs>
    <marker id="cc-arrow" viewBox="0 0 10 10" refX="8" refY="5" markerWidth="7" markerHeight="7" orient="auto-start-reverse">
      <path d="M0 0 L10 5 L0 10 z" fill="#0d9488"/>
    </marker>
    <path id="cc-ring" d="M310 110 A150 118 0 0 1 310 346 A150 118 0 0 1 310 110" fill="none"/>
  </defs>

  <rect width="620" height="440" rx="16" fill="#f0fdfa"/>
  <text x="310" y="42" text-anchor="middle" font-family="Inter, Arial, sans-serif" font-size="20" font-weight="700" fill="#0f766e">The communication cycle</text>

  <!-- ring guide -->
  <ellipse cx="310" cy="228" rx="150" ry="118" fill="none" stroke="#99f6e4" stroke-width="3" stroke-dasharray="4 8"/>

  <!-- directional arrows around the loop -->
  <path d="M448 180 A150 118 0 0 1 448 276" fill="none" stroke="#0d9488" stroke-width="3" marker-end="url(#cc-arrow)"/>
  <path d="M172 276 A150 118 0 0 1 172 180" fill="none" stroke="#0d9488" stroke-width="3" marker-end="url(#cc-arrow)"/>

  <!-- travelling message dot -->
  <circle r="9" fill="#f59e0b">
    <animateMotion dur="6s" repeatCount="indefinite" rotate="auto">
      <mpath href="#cc-ring"/>
    </animateMotion>
    <animate attributeName="r" values="9;13;9" dur="1.2s" repeatCount="indefinite"/>
  </circle>

  <!-- nodes -->
  <g font-family="Inter, Arial, sans-serif" text-anchor="middle">
    <!-- Sender (top) -->
    <g>
      <circle cx="310" cy="110" r="44" fill="#0d9488">
        <animate attributeName="fill" values="#0d9488;#14b8a6;#0d9488" dur="6s" begin="0s" repeatCount="indefinite"/>
      </circle>
      <text x="310" y="106" fill="#fff" font-size="14" font-weight="700">Sender</text>
      <text x="310" y="124" fill="#ccfbf1" font-size="9.5">forms message</text>
    </g>
    <!-- Message (right) -->
    <g>
      <circle cx="460" cy="228" r="44" fill="#0d9488">
        <animate attributeName="fill" values="#0d9488;#14b8a6;#0d9488" dur="6s" begin="1.5s" repeatCount="indefinite"/>
      </circle>
      <text x="460" y="224" fill="#fff" font-size="14" font-weight="700">Message</text>
      <text x="460" y="242" fill="#ccfbf1" font-size="9.5">words + body</text>
    </g>
    <!-- Receiver (bottom) -->
    <g>
      <circle cx="310" cy="346" r="44" fill="#0d9488">
        <animate attributeName="fill" values="#0d9488;#14b8a6;#0d9488" dur="6s" begin="3s" repeatCount="indefinite"/>
      </circle>
      <text x="310" y="342" fill="#fff" font-size="14" font-weight="700">Receiver</text>
      <text x="310" y="360" fill="#ccfbf1" font-size="9.5">interprets it</text>
    </g>
    <!-- Feedback (left) -->
    <g>
      <circle cx="160" cy="228" r="44" fill="#0d9488">
        <animate attributeName="fill" values="#0d9488;#14b8a6;#0d9488" dur="6s" begin="4.5s" repeatCount="indefinite"/>
      </circle>
      <text x="160" y="224" fill="#fff" font-size="14" font-weight="700">Feedback</text>
      <text x="160" y="242" fill="#ccfbf1" font-size="9.5">confirms it</text>
    </g>
  </g>
</svg>
